<?xml version="1.0" standalone="no"?>
<!DOCTYPE svg PUBLIC "-//W3C//DTD SVG 20010904//EN"
 "http://www.w3.org/TR/2001/REC-SVG-20010904/DTD/svg10.dtd">
<svg version="1.0" xmlns="http://www.w3.org/2000/svg"
 width="297.000000pt" height="297.000000pt" viewBox="0 0 297.000000 297.000000"
 preserveAspectRatio="xMidYMid meet">
<metadata>
Created by potrace 1.11, written by Peter Selinger 2001-2013
</metadata>
<g transform="translate(0.000000,297.000000) scale(0.100000,-0.100000)"
fill="#000000" stroke="none">
<path d="M1495 2958 c-2 -7 -6 -31 -7 -52 -3 -39 -3 -40 -61 -53 -59 -13 -116
-38 -118 -51 -5 -48 -5 -52 5 -42 16 16 416 14 416 -2 1 -46 13 -164 18 -168
11 -12 -10 197 -23 216 -14 22 -100 54 -145 54 -31 0 -39 12 -34 55 2 16 -2
35 -8 42 -13 17 -37 17 -43 1z"/>
<path d="M1297 2696 c-4 -27 -6 -67 -6 -90 1 -25 5 -11 10 39 10 89 6 128 -4
51z"/>
<path d="M1495 2660 c-60 -13 -110 -56 -124 -106 -6 -23 -14 -30 -39 -32 -30
-3 -38 4 -33 31 1 5 -3 6 -8 2 -6 -3 -8 -12 -4 -20 4 -11 -3 -15 -26 -15 -20
0 -31 -5 -31 -14 0 -19 17 -30 25 -17 12 20 34 -2 38 -37 l4 -37 1 40 c2 37 4
40 32 40 26 1 32 -4 39 -35 5 -19 9 -52 8 -72 -2 -36 -4 -38 -34 -38 -23 0
-33 5 -33 16 0 8 -3 13 -7 11 -5 -3 -7 -82 -5 -176 l3 -171 72 39 c40 22 108
54 152 71 44 18 110 45 147 62 l66 30 4 65 c2 36 0 70 -4 77 -5 7 -8 5 -8 -6
0 -14 -8 -18 -35 -18 -33 0 -35 2 -35 33 0 17 6 50 13 72 12 40 12 40 62 39
47 0 50 -2 48 -25 -3 -23 -2 -23 9 -4 6 11 14 22 17 25 19 16 8 30 -23 30 -19
0 -37 6 -39 13 -4 10 -6 10 -6 0 -1 -7 -14 -13 -30 -13 -23 0 -30 5 -36 27
-19 79 -101 130 -180 113z"/>
<path d="M1741 2564 c0 -11 3 -14 6 -6 3 7 2 16 -1 19 -3 4 -6 -2 -5 -13z"/>
<path d="M1741 2440 c0 -25 3 -51 8 -59 5 -8 7 5 4 35 -6 68 -11 77 -12 24z"/>
<path d="M1250 2465 c0 -5 5 -17 10 -25 5 -8 10 -10 10 -5 0 6 -5 17 -10 25
-5 8 -10 11 -10 5z"/>
<path d="M1766 2423 c-6 -14 -5 -15 5 -6 7 7 10 15 7 18 -3 3 -9 -2 -12 -12z"/>
<path d="M1271 2415 c0 -5 4 -17 9 -25 7 -11 10 -11 10 -2 0 7 5 10 12 6 7 -4
8 -3 4 5 -4 6 -11 9 -16 6 -4 -3 -11 1 -13 7 -3 7 -6 9 -6 3z"/>
<path d="M1605 2050 c-135 -56 -155 -65 -242 -123 l-63 -42 0 -188 0 -188 28
20 c34 24 168 86 267 125 39 15 86 35 105 44 l35 17 3 193 c1 105 -1 192 -5
191 -5 0 -62 -22 -128 -49z"/>
<path d="M1610 1534 c-151 -61 -200 -86 -262 -131 l-48 -35 0 -184 0 -185 73
39 c39 21 135 64 212 96 77 32 143 61 148 65 4 4 6 93 5 197 l-3 189 -125 -51z"/>
<path d="M1598 1015 c-129 -53 -234 -109 -275 -144 -20 -17 -23 -29 -23 -100
0 -58 -4 -81 -12 -82 -7 -1 -24 -2 -38 -2 -21 -2 -25 -7 -25 -38 l-1 -36 297
0 297 -1 -2 37 c-1 31 -5 36 -26 38 -14 0 -31 1 -37 2 -10 1 -13 46 -13 191 0
105 -3 190 -7 189 -5 -1 -65 -25 -135 -54z"/>
<path d="M1231 568 c-5 -12 -7 -26 -4 -30 2 -5 -3 -8 -12 -8 -12 0 -15 5 -10
18 5 14 4 15 -7 4 -11 -11 -10 -16 5 -27 18 -13 18 -14 -2 -24 -13 -7 -18 -17
-14 -28 6 -14 8 -13 24 5 18 23 49 21 49 -4 0 -8 6 -11 15 -8 14 6 14 8 -1 19
-9 6 -14 18 -11 26 4 10 6 9 6 -3 1 -23 27 -23 40 -1 5 10 13 14 17 10 4 -4
17 1 28 10 12 10 15 11 9 3 -17 -18 -17 -33 -1 -24 7 5 45 7 85 6 69 -3 92 6
78 29 -5 7 -13 4 -26 -7 -15 -14 -20 -14 -24 -3 -3 8 -19 15 -36 15 -22 1 -27
-1 -18 -7 9 -6 10 -9 2 -9 -6 0 -15 5 -18 10 -4 6 -10 8 -15 5 -5 -3 -12 0
-16 6 -4 7 -3 9 3 6 6 -4 13 -1 16 7 7 17 -18 15 -35 -2 -17 -17 -28 -15 -21
6 5 14 3 13 -10 -3 -8 -11 -13 -24 -10 -28 3 -5 -5 -6 -17 -2 -17 5 -21 4 -15
-6 6 -11 5 -11 -5 -2 -7 7 -14 22 -15 35 -2 30 -23 35 -34 6z m23 -15 c-1 -16
-3 -35 -3 -42 -1 -13 -3 -13 -13 -2 -11 11 -10 14 0 18 6 3 9 9 6 14 -5 9 1
39 9 39 1 0 2 -12 1 -27z"/>
<path d="M1603 567 c16 -11 16 -14 3 -32 -8 -11 -24 -20 -35 -20 -11 0 -21 -4
-21 -10 0 -13 87 -18 95 -5 4 6 15 4 30 -6 15 -10 24 -11 27 -4 2 7 11 5 23
-5 11 -9 15 -14 9 -11 -6 3 -11 -1 -11 -8 0 -21 19 -10 42 24 11 17 22 25 26
18 4 -7 9 -7 13 1 9 14 -1 31 -20 31 -8 0 -14 -8 -14 -17 0 -15 -2 -15 -9 -4
-8 13 -12 13 -27 0 -16 -13 -17 -12 -11 6 7 20 7 20 -8 1 -8 -11 -15 -15 -15
-9 0 17 -32 25 -42 11 -6 -10 -8 -9 -8 4 0 21 -27 48 -48 48 -14 0 -14 -1 1
-13z m37 -42 c0 -18 -5 -25 -20 -25 -24 0 -25 8 -3 32 21 23 23 23 23 -7z
m107 -27 c-3 -8 -6 -5 -6 6 -1 11 2 17 5 13 3 -3 4 -12 1 -19z"/>
<path d="M1557 555 c-8 -19 12 -30 26 -16 9 9 7 10 -8 5 -18 -7 -18 -6 -6 9 7
9 9 17 3 17 -5 0 -12 -7 -15 -15z"/>
<path d="M1276 435 c-3 -8 -9 -15 -13 -14 -27 4 -41 -4 -46 -26 -4 -24 -3 -24
13 -10 9 8 26 15 37 15 12 0 23 8 26 20 6 24 -8 37 -17 15z"/>
<path d="M1316 434 c-3 -9 -6 -20 -6 -25 0 -15 63 -6 68 9 2 7 -2 10 -12 6
-11 -4 -16 -1 -16 10 0 21 -26 21 -34 0z"/>
<path d="M1478 437 c-7 -8 -24 -12 -36 -10 -17 2 -21 -1 -16 -9 6 -10 4 -10
-8 0 -20 16 -33 0 -20 -24 6 -11 11 -13 16 -5 11 17 96 14 96 -3 0 -8 -6 -17
-12 -19 -9 -4 -10 -6 -1 -6 6 -1 19 7 29 16 9 10 27 16 38 15 17 -2 22 3 24
25 2 26 1 26 -13 7 -15 -19 -15 -19 -9 1 5 17 4 18 -8 5 -24 -28 -54 -20 -49
13 2 12 -16 8 -31 -6z"/>
<path d="M1082 428 c-6 -6 -12 -21 -11 -32 1 -18 2 -17 8 4 8 30 37 38 45 13
4 -15 5 -15 3 2 -3 23 -27 31 -45 13z"/>
<path d="M1165 410 c0 -21 4 -26 18 -22 9 2 17 9 17 16 0 6 -8 16 -17 22 -16
10 -18 7 -18 -16z"/>
<path d="M1923 421 c-9 -14 -20 -18 -39 -15 -19 3 -24 1 -18 -8 6 -9 3 -9 -10
1 -12 11 -20 11 -28 3 -16 -16 9 -24 63 -20 38 3 43 6 46 31 4 32 2 34 -14 8z"/>
<path d="M1812 418 c-15 -15 -16 -38 0 -38 6 0 8 3 5 6 -3 4 -2 15 4 25 11 22
8 24 -9 7z"/>
<path d="M1100 420 c-7 -30 -7 -39 0 -35 5 3 10 -1 13 -7 2 -7 7 -11 10 -8 3
3 -1 16 -8 30 -8 14 -15 23 -15 20z"/>
<path d="M1136 403 c-4 -9 -2 -21 4 -27 7 -7 10 -2 10 17 0 31 -5 34 -14 10z"/>
<path d="M1604 408 c-8 -12 -4 -15 25 -20 15 -2 25 2 26 12 3 17 -41 24 -51 8z"/>
<path d="M1766 413 c-4 -5 -26 -8 -49 -9 -30 0 -42 -5 -42 -15 0 -8 -6 -17
-14 -20 -10 -4 -11 -8 -4 -12 6 -4 18 0 26 8 9 8 33 15 56 15 34 0 41 3 41 20
0 22 -3 24 -14 13z"/>
</g>
</svg>
